<?xml version="1.0" encoding="utf-8"?>
<!-- Generator: Adobe Illustrator 15.0.0, SVG Export Plug-In  -->
<!DOCTYPE svg PUBLIC "-//W3C//DTD SVG 1.1//EN" "http://www.w3.org/Graphics/SVG/1.1/DTD/svg11.dtd" [
	<!ENTITY ns_flows "http://ns.adobe.com/Flows/1.0/">
]>
<svg version="1.1"
	 xmlns="http://www.w3.org/2000/svg" xmlns:xlink="http://www.w3.org/1999/xlink" xmlns:a="http://ns.adobe.com/AdobeSVGViewerExtensions/3.0/"
	 x="0px" y="0px" width="1017px" height="423px" viewBox="-10.43 -5.604 1017 423" enable-background="new -10.43 -5.604 1017 423"
	 xml:space="preserve">
<defs>
</defs>
<path fill="#5FA3C1" d="M403.897,214.713c33.586,0,60.801-27.217,60.801-60.802c0-33.568-27.215-60.767-60.801-60.767
	c-28.496,0-52.377,19.586-58.96,46.026l58.96,14.775l-58.952,14.754C351.543,195.133,375.416,214.713,403.897,214.713z"/>
<path fill="#5FA3C1" d="M403.897,58.223c-44.823,0-82.44,30.833-92.829,72.46l18.273,4.579
	c8.327-33.439,38.526-58.194,74.556-58.194c42.466,0,76.879,34.379,76.879,76.843c0,42.482-34.413,76.893-76.879,76.893
	c-36.019,0-66.209-24.761-74.548-58.201l-18.284,4.576c10.387,41.605,48.006,72.455,92.832,72.455
	c52.875,0,95.724-42.863,95.724-95.688C499.621,101.069,456.772,58.223,403.897,58.223z"/>
<path fill-rule="evenodd" clip-rule="evenodd" fill="#5FA3C1" d="M470.46,20.42c0,0-87.414-60.371-262.289,31.211
	C33.296,143.217,0,174.446,0,174.446c69.062,61.976,150.73,107.244,244.605,128.111c-62.648-26.997-155.219-85.204-189.438-124.912
	C176.34,94.128,319.414,3.882,470.46,20.42"/>
<path fill="#232526" d="M529.383,221.261c3.422,8.904,7.063,17.123,10.915,24.654c3.852,7.537,8.475,14.085,13.867,19.647
	c5.394,5.566,11.686,9.933,18.877,13.099c7.19,3.169,15.834,4.751,25.938,4.751c6.677,0,12.841-1.111,18.49-3.339
	c5.65-2.224,10.614-5.393,14.896-9.502c4.277-4.109,7.615-8.945,10.016-14.511c2.396-5.561,3.596-11.686,3.596-18.362
	c0-8.386-1.541-15.579-4.622-21.573c-3.083-5.991-7.191-11.171-12.329-15.537c-5.136-4.366-10.959-8.175-17.463-11.429
	c-6.509-3.25-13.187-6.42-20.031-9.502c-7.705-3.423-15.454-7.191-23.242-11.3c-7.794-4.109-14.768-8.988-20.932-14.638
	c-6.163-5.65-11.215-12.156-15.152-19.519c-3.939-7.358-5.906-16.091-5.906-26.195c0-10.786,2.184-20.329,6.549-28.636
	c4.366-8.301,10.273-15.28,17.721-20.93c7.447-5.65,16.091-9.928,25.938-12.841c9.844-2.91,20.329-4.366,31.46-4.366
	c10.787,0,20.758,0.814,29.92,2.44c9.157,1.628,18.961,3.812,29.406,6.548c-0.515,5.482-0.943,10.574-1.285,15.281
	c-0.345,4.711-0.558,9.333-0.641,13.868c-0.09,4.539-0.173,9.162-0.258,13.869c-0.088,4.711-0.128,9.803-0.128,15.281l-10.786,1.027
	c-1.542-18.146-7.063-31.718-16.565-40.706c-9.503-8.989-22.303-13.484-38.395-13.484c-6.164,0-11.813,0.943-16.95,2.825
	c-5.136,1.886-9.59,4.624-13.354,8.219c-3.768,3.596-6.722,7.878-8.86,12.841c-2.143,4.967-3.21,10.53-3.21,16.692
	c0,8.219,1.324,15.112,3.98,20.673c2.652,5.567,6.292,10.401,10.914,14.511c4.623,4.109,9.973,7.665,16.052,10.659
	c6.076,2.997,12.456,5.951,19.133,8.859c8.219,3.595,16.477,7.536,24.783,11.814c8.304,4.282,15.75,9.333,22.344,15.152
	c6.589,5.823,11.941,12.584,16.051,20.288c4.11,7.705,6.163,16.782,6.163,27.223c0,11.646-2.398,21.959-7.19,30.947
	c-4.795,8.989-11.131,16.609-19.004,22.856c-7.878,6.252-16.951,11.003-27.224,14.253c-10.272,3.252-20.802,4.88-31.589,4.88
	c-9.418,0-19.177-0.942-29.277-2.825c-10.104-1.886-20.802-4.449-32.102-7.704c-1.2-11.299-2.656-21.913-4.366-31.846
	c-1.714-9.928-4.024-20.545-6.935-31.844L529.383,221.261z"/>
<path fill="#232526" d="M710.955,221.261c3.422,8.904,7.062,17.123,10.915,24.654c3.852,7.537,8.474,14.085,13.867,19.647
	c5.393,5.566,11.686,9.933,18.877,13.099c7.19,3.169,15.834,4.751,25.938,4.751c6.678,0,12.842-1.111,18.491-3.339
	c5.65-2.224,10.614-5.393,14.896-9.502c4.277-4.109,7.615-8.945,10.016-14.511c2.396-5.561,3.596-11.686,3.596-18.362
	c0-8.386-1.541-15.579-4.624-21.573c-3.081-5.991-7.19-11.171-12.327-15.537c-5.136-4.366-10.959-8.175-17.463-11.429
	c-6.51-3.25-13.187-6.42-20.031-9.502c-7.705-3.423-15.454-7.191-23.242-11.3c-7.793-4.109-14.768-8.988-20.932-14.638
	c-6.164-5.65-11.215-12.156-15.152-19.519c-3.94-7.358-5.906-16.091-5.906-26.195c0-10.786,2.183-20.329,6.548-28.636
	c4.366-8.301,10.274-15.28,17.721-20.93c7.447-5.65,16.092-9.928,25.938-12.841c9.844-2.91,20.33-4.366,31.462-4.366
	c10.786,0,20.758,0.814,29.918,2.44c9.158,1.628,18.961,3.812,29.407,6.548c-0.515,5.482-0.943,10.574-1.285,15.281
	c-0.345,4.711-0.558,9.333-0.643,13.868c-0.088,4.539-0.171,9.162-0.256,13.869c-0.088,4.711-0.129,9.803-0.129,15.281
	l-10.786,1.027c-1.541-18.146-7.063-31.718-16.564-40.706c-9.503-8.989-22.303-13.484-38.396-13.484
	c-6.163,0-11.813,0.943-16.949,2.825c-5.136,1.886-9.591,4.624-13.354,8.219c-3.769,3.596-6.721,7.878-8.861,12.841
	c-2.142,4.967-3.21,10.53-3.21,16.692c0,8.219,1.324,15.112,3.98,20.673c2.652,5.567,6.293,10.401,10.915,14.511
	s9.973,7.665,16.052,10.659c6.075,2.997,12.456,5.951,19.133,8.859c8.219,3.595,16.478,7.536,24.782,11.814
	c8.303,4.282,15.752,9.333,22.345,15.152c6.589,5.823,11.941,12.584,16.051,20.288c4.108,7.705,6.163,16.782,6.163,27.223
	c0,11.646-2.4,21.959-7.19,30.947c-4.795,8.989-11.132,16.609-19.004,22.856c-7.878,6.252-16.95,11.003-27.223,14.253
	c-10.274,3.252-20.804,4.88-31.59,4.88c-9.419,0-19.177-0.942-29.277-2.825c-10.104-1.886-20.803-4.449-32.102-7.704
	c-1.201-11.299-2.656-21.913-4.367-31.846c-1.714-9.928-4.024-20.545-6.934-31.844L710.955,221.261z"/>
<path fill="#232526" d="M886.618,284.182c6.677-0.515,12.07-1.324,16.179-2.44c4.109-1.111,7.319-2.825,9.631-5.136
	c2.313-2.312,3.893-5.478,4.752-9.503c0.854-4.021,1.283-9.286,1.283-15.794V78.47c0-4.109-0.344-7.532-1.026-10.273
	c-0.688-2.736-2.184-5.007-4.495-6.806c-2.311-1.797-5.61-3.121-9.887-3.98c-4.282-0.854-9.933-1.452-16.95-1.797l0.514-9.246
	c2.736,0,6.075,0.044,10.016,0.129c3.938,0.087,8.13,0.127,12.584,0.127c4.623,0,9.286,0.044,13.996,0.129
	c4.707,0.087,9.118,0.129,13.227,0.129c3.251,0,6.891-0.042,10.915-0.129c4.021-0.085,8.002-0.129,11.941-0.129
	c3.937,0,7.661-0.04,11.172-0.127c3.508-0.085,6.462-0.129,8.86-0.129l0.771,8.731c-6.677,0.514-12.071,1.328-16.179,2.44
	c-4.109,1.116-7.364,2.825-9.76,5.136c-2.4,2.311-4.024,5.481-4.88,9.502c-0.858,4.026-1.283,9.206-1.283,15.539v173.095
	c0,4.109,0.34,7.536,1.026,10.273c0.683,2.74,2.184,5.008,4.495,6.806c2.311,1.797,5.604,3.125,9.887,3.98
	c4.278,0.858,10.017,1.456,17.207,1.797l-0.514,9.246c-2.74,0-6.123-0.04-10.144-0.129c-4.026-0.084-8.347-0.128-12.97-0.128
	c-4.454,0-8.988-0.041-13.611-0.129c-4.622-0.085-8.988-0.128-13.098-0.128c-3.427,0-7.107,0.043-11.044,0.128
	c-3.939,0.088-7.876,0.129-11.813,0.129c-3.94,0-7.665,0.044-11.171,0.128c-3.512,0.089-6.465,0.129-8.86,0.129L886.618,284.182z"/>
<path fill="#5FA3C1" d="M60.407,384.438c0-1.069-0.019-1.981-0.055-2.738c-0.037-0.755-0.157-1.511-0.359-2.268
	c-0.203-0.755-0.507-1.576-0.913-2.461c-0.406-0.885-0.978-1.991-1.715-3.318c-0.995-1.77-2.204-3.908-3.623-6.416
	c-1.42-2.507-3.217-5.566-5.392-9.181c-0.849-1.438-1.577-2.608-2.185-3.512c-0.608-0.903-1.254-1.622-1.936-2.157
	c-0.683-0.534-1.485-0.921-2.406-1.161c-0.922-0.239-2.102-0.415-3.54-0.525l0.11-1.991c1.549,0,3.254,0.019,5.116,0.055
	c1.861,0.038,3.733,0.056,5.613,0.056c1.549,0,3.125-0.018,4.729-0.056c1.604-0.036,3.18-0.055,4.729-0.055l0.166,1.88
	c-1.991,0.148-3.365,0.388-4.12,0.72c-0.756,0.331-1.134,0.829-1.134,1.493c0,0.442,0.128,0.959,0.387,1.549
	c0.258,0.59,0.608,1.309,1.051,2.156l10.066,18.528l9.734-17.588c0.589-1.069,1.042-1.963,1.355-2.683
	c0.313-0.719,0.47-1.336,0.47-1.853c0-0.7-0.415-1.207-1.245-1.521s-2.295-0.544-4.397-0.691l0.111-1.991
	c1.364,0,2.802,0.019,4.314,0.055c1.511,0.038,3.097,0.056,4.756,0.056c1.364,0,2.774-0.018,4.231-0.056
	c1.456-0.036,2.867-0.055,4.231-0.055l0.166,1.88c-1.438,0.111-2.627,0.296-3.567,0.554c-0.94,0.258-1.779,0.7-2.517,1.327
	c-0.738,0.627-1.465,1.476-2.185,2.544c-0.719,1.07-1.595,2.471-2.627,4.203c-1.88,3.135-3.503,5.909-4.867,8.324
	c-1.364,2.415-2.434,4.396-3.208,5.945c-0.774,1.513-1.365,2.729-1.77,3.65c-0.406,0.922-0.701,1.733-0.885,2.434
	c-0.185,0.701-0.286,1.374-0.304,2.019c-0.019,0.646-0.028,1.43-0.028,2.351v10.951c0,0.885,0.074,1.623,0.221,2.212
	c0.147,0.59,0.479,1.078,0.996,1.466c0.516,0.387,1.3,0.673,2.351,0.857s2.479,0.313,4.286,0.387l-0.11,1.991
	c-0.774,0-1.651-0.009-2.627-0.027c-0.978-0.019-1.982-0.028-3.015-0.028c-1.033,0-2.056-0.008-3.069-0.027
	c-1.015-0.019-1.963-0.027-2.848-0.027c-0.738,0-1.54,0.009-2.406,0.027c-0.867,0.02-1.742,0.027-2.627,0.027
	s-1.77,0.01-2.655,0.028c-0.885,0.019-1.678,0.027-2.378,0.027l-0.166-1.881c1.695-0.11,3.06-0.276,4.093-0.497
	c1.032-0.222,1.806-0.59,2.323-1.106c0.516-0.516,0.857-1.207,1.023-2.074c0.166-0.865,0.249-1.999,0.249-3.401V384.438z"/>
<path fill="#5FA3C1" d="M118.535,347.604c4.019,0,7.715,0.636,11.089,1.908c3.374,1.272,6.259,3.089,8.656,5.448
	c2.396,2.359,4.267,5.208,5.614,8.545c1.345,3.337,2.019,7.07,2.019,11.199c0,4.093-0.664,7.863-1.991,11.311
	c-1.327,3.448-3.189,6.425-5.586,8.932c-2.397,2.508-5.273,4.462-8.628,5.863c-3.355,1.4-7.079,2.102-11.172,2.102
	c-4.02,0-7.707-0.637-11.062-1.908c-3.355-1.272-6.241-3.088-8.655-5.448c-2.416-2.359-4.296-5.207-5.642-8.545
	c-1.346-3.336-2.019-7.069-2.019-11.199c0-4.093,0.664-7.862,1.991-11.311c1.328-3.447,3.189-6.424,5.586-8.932
	c2.396-2.508,5.272-4.461,8.628-5.863C110.718,348.305,114.442,347.604,118.535,347.604z M118.203,350.59
	c-2.544,0-4.987,0.415-7.328,1.245c-2.342,0.829-4.406,2.166-6.194,4.01c-1.789,1.844-3.217,4.23-4.286,7.162
	c-1.07,2.931-1.604,6.498-1.604,10.702c0,4.941,0.608,9.089,1.825,12.443c1.217,3.356,2.783,6.057,4.701,8.103
	c1.917,2.047,4.065,3.504,6.443,4.37c2.378,0.866,4.747,1.299,7.107,1.299c2.544,0,4.986-0.414,7.328-1.244
	c2.341-0.829,4.405-2.165,6.194-4.01c1.788-1.843,3.216-4.23,4.286-7.162c1.069-2.932,1.604-6.499,1.604-10.702
	c0-4.94-0.608-9.088-1.825-12.444c-1.217-3.354-2.784-6.056-4.701-8.103c-1.917-2.046-4.065-3.502-6.443-4.369
	C122.932,351.024,120.563,350.59,118.203,350.59z"/>
<path fill="#5FA3C1" d="M165.27,383.608c0,2.655,0.443,4.932,1.328,6.831s2.055,3.447,3.512,4.646s3.106,2.083,4.95,2.654
	c1.843,0.572,3.742,0.857,5.697,0.857c1.991,0,3.89-0.304,5.696-0.912c1.806-0.608,3.41-1.585,4.812-2.932
	c1.401-1.346,2.517-3.078,3.346-5.199c0.83-2.119,1.244-4.673,1.244-7.659v-23.229c0-1.622-0.12-2.932-0.359-3.927
	c-0.24-0.995-0.683-1.77-1.327-2.323c-0.646-0.553-1.54-0.939-2.683-1.161c-1.144-0.222-2.619-0.387-4.425-0.498l0.111-1.991
	c1.29,0,2.848,0.02,4.673,0.056c1.825,0.037,3.733,0.056,5.725,0.056c1.622,0,3.318-0.028,5.088-0.083
	c1.77-0.056,3.244-0.083,4.425-0.083l0.055,1.88c-1.623,0.148-2.941,0.323-3.955,0.525c-1.014,0.203-1.825,0.601-2.433,1.189
	c-0.608,0.59-1.023,1.457-1.245,2.6c-0.221,1.144-0.332,2.71-0.332,4.701V383c0,3.614-0.608,6.674-1.825,9.182
	c-1.216,2.508-2.812,4.563-4.784,6.166c-1.973,1.604-4.204,2.766-6.692,3.484c-2.489,0.72-5.024,1.079-7.604,1.079
	c-2.544,0-4.978-0.352-7.301-1.051c-2.323-0.7-4.379-1.771-6.167-3.208c-1.789-1.438-3.217-3.244-4.287-5.42
	c-1.07-2.176-1.604-4.737-1.604-7.688v-29.533c0-0.886-0.083-1.641-0.249-2.268s-0.517-1.152-1.051-1.577
	c-0.535-0.423-1.3-0.746-2.295-0.968c-0.996-0.221-2.323-0.368-3.982-0.442l0.11-1.991c0.664,0,1.447,0.01,2.351,0.028
	c0.903,0.019,1.853,0.027,2.848,0.027c1.032,0,2.074,0.01,3.125,0.027c1.051,0.02,2.037,0.028,2.959,0.028
	c0.737,0,1.557-0.009,2.461-0.028c0.903-0.018,1.815-0.027,2.737-0.027c0.921,0,1.798-0.009,2.627-0.027s1.557-0.028,2.185-0.028
	l0.166,1.881c-1.586,0.11-2.876,0.296-3.872,0.553c-0.996,0.259-1.77,0.664-2.323,1.217c-0.553,0.554-0.931,1.282-1.134,2.185
	c-0.203,0.904-0.304,2.038-0.304,3.401V383.608z"/>
<path fill="#5FA3C1" d="M224.062,394.78c0,0.886,0.055,1.632,0.166,2.24c0.11,0.608,0.415,1.116,0.912,1.521
	c0.498,0.405,1.226,0.71,2.185,0.912c0.958,0.203,2.304,0.323,4.037,0.359l-0.11,1.991c-1.77,0-3.614-0.019-5.531-0.056
	c-1.917-0.036-3.761-0.055-5.531-0.055c-0.701,0-1.475,0.009-2.323,0.027c-0.849,0.02-1.697,0.027-2.544,0.027
	c-0.812,0-1.585,0.01-2.323,0.028c-0.738,0.019-1.365,0.027-1.88,0.027l-0.111-1.881c1.438-0.11,2.59-0.285,3.457-0.525
	c0.866-0.239,1.539-0.608,2.019-1.105c0.479-0.498,0.802-1.18,0.968-2.047c0.166-0.865,0.249-1.999,0.249-3.401v-37.222
	c0-0.885-0.074-1.622-0.221-2.212c-0.148-0.59-0.452-1.079-0.913-1.466c-0.461-0.387-1.153-0.672-2.074-0.857
	c-0.922-0.184-2.157-0.313-3.706-0.387l0.111-1.991c0.589,0,1.281,0.01,2.074,0.027c0.792,0.02,1.65,0.027,2.572,0.027
	c0.921,0,1.861,0.01,2.821,0.028c0.958,0.019,1.88,0.027,2.765,0.027c1.475,0,2.959-0.101,4.453-0.304
	c1.493-0.202,3.014-0.305,4.563-0.305c2.212,0,4.425,0.185,6.637,0.553c2.212,0.369,4.212,1.033,6,1.991
	c1.788,0.96,3.236,2.259,4.342,3.899c1.106,1.642,1.659,3.733,1.659,6.277c0,1.696-0.268,3.301-0.802,4.812
	c-0.535,1.513-1.282,2.886-2.24,4.121c-0.959,1.235-2.093,2.322-3.401,3.263c-1.309,0.94-2.757,1.706-4.341,2.295
	c1.179,2.25,2.341,4.407,3.484,6.472c1.143,2.065,2.203,3.954,3.18,5.669c0.977,1.714,1.862,3.217,2.655,4.507
	c0.792,1.291,1.447,2.305,1.963,3.042c0.7,0.959,1.309,1.725,1.825,2.296c0.516,0.571,1.079,1.014,1.687,1.327
	s1.318,0.544,2.129,0.691c0.811,0.147,1.861,0.276,3.152,0.387l-0.11,1.991c-1.106,0-2.554-0.019-4.342-0.056
	c-1.789-0.036-3.512-0.055-5.171-0.055c-0.517,0-1.078,0.009-1.687,0.027c-0.608,0.02-1.171,0.047-1.687,0.083
	c-0.369-0.774-0.94-1.908-1.714-3.401c-0.774-1.493-1.697-3.226-2.766-5.199c-1.07-1.972-2.25-4.12-3.54-6.443
	c-1.291-2.322-2.637-4.682-4.038-7.079c-0.221-0.368-0.434-0.7-0.636-0.995c-0.203-0.295-0.461-0.544-0.774-0.747
	c-0.313-0.202-0.729-0.359-1.245-0.47c-0.517-0.11-1.198-0.166-2.046-0.166h-1.659c-0.295,0-0.655-0.009-1.078-0.027
	c-0.424-0.019-0.932-0.046-1.521-0.083V394.78z M224.062,374.538c0.294,0.037,0.589,0.065,0.885,0.083
	c0.295,0.02,0.589,0.027,0.885,0.027h1.77c4.35,0,7.715-0.995,10.094-2.986c2.378-1.991,3.567-5.217,3.567-9.679
	c0-3.761-1.134-6.507-3.401-8.24s-5.282-2.6-9.042-2.6c-1.144,0-2.038,0.102-2.683,0.304c-0.646,0.203-1.116,0.508-1.41,0.913
	c-0.295,0.406-0.479,0.903-0.553,1.493c-0.074,0.59-0.11,1.254-0.11,1.991V374.538z"/>
<path fill="#5FA3C1" d="M297.509,392.79c0,1.254,0.073,2.286,0.221,3.097c0.147,0.812,0.47,1.447,0.968,1.908
	c0.498,0.462,1.198,0.784,2.102,0.968c0.903,0.185,2.11,0.276,3.623,0.276h4.093c2.138,0,3.88-0.174,5.227-0.525
	c1.346-0.35,2.479-0.94,3.401-1.77c0.921-0.83,1.742-1.927,2.461-3.291c0.719-1.363,1.502-3.042,2.351-5.033l2.157,0.498
	c-0.295,1.07-0.572,2.213-0.83,3.429c-0.258,1.217-0.498,2.416-0.719,3.596c-0.221,1.181-0.406,2.286-0.553,3.318
	c-0.148,1.032-0.24,1.88-0.276,2.544c-7.338,0-13.283-0.019-17.837-0.056c-4.554-0.036-7.956-0.055-10.204-0.055
	c-0.664,0-1.447,0.009-2.351,0.027c-0.904,0.02-1.834,0.027-2.793,0.027c-0.959,0-1.89,0.01-2.793,0.028
	c-0.904,0.019-1.668,0.027-2.295,0.027l-0.166-1.881c1.695-0.11,3.06-0.285,4.092-0.525c1.032-0.239,1.825-0.608,2.378-1.105
	c0.553-0.498,0.921-1.18,1.106-2.047c0.184-0.865,0.277-1.999,0.277-3.401v-37.222c0-0.885-0.083-1.622-0.249-2.212
	s-0.498-1.079-0.996-1.466c-0.498-0.387-1.217-0.672-2.157-0.857c-0.94-0.184-2.204-0.313-3.789-0.387l0.166-1.991
	c0.7,0,1.502,0.01,2.406,0.027c0.903,0.02,1.815,0.027,2.738,0.027c0.958,0,1.889,0.01,2.793,0.028
	c0.903,0.019,1.742,0.027,2.516,0.027c1.438,0,4.461-0.018,9.071-0.056c4.608-0.036,10.471-0.055,17.587-0.055
	c-0.221,1.88-0.387,3.854-0.498,5.918c-0.111,2.065-0.185,4.259-0.221,6.581l-2.212,0.056c-0.332-1.917-0.701-3.503-1.106-4.757
	c-0.406-1.253-0.978-2.258-1.715-3.014c-0.738-0.756-1.696-1.29-2.876-1.604c-1.18-0.313-2.71-0.47-4.59-0.47h-7.909
	c-1.106,0-1.816,0.11-2.129,0.332c-0.314,0.221-0.47,0.793-0.47,1.714v19.137l18.694-0.553l0.387,0.387l-0.111,4.591
	c-3.355-0.295-6.665-0.498-9.928-0.608c-3.263-0.111-6.277-0.202-9.042-0.276V392.79z"/>
<path fill="#5FA3C1" d="M347.064,384.438c0-1.069-0.019-1.981-0.055-2.738c-0.037-0.755-0.157-1.511-0.359-2.268
	c-0.203-0.755-0.507-1.576-0.913-2.461c-0.406-0.885-0.978-1.991-1.715-3.318c-0.995-1.77-2.204-3.908-3.623-6.416
	c-1.42-2.507-3.217-5.566-5.392-9.181c-0.849-1.438-1.577-2.608-2.185-3.512c-0.608-0.903-1.254-1.622-1.936-2.157
	c-0.683-0.534-1.485-0.921-2.406-1.161c-0.922-0.239-2.102-0.415-3.54-0.525l0.11-1.991c1.549,0,3.254,0.019,5.116,0.055
	c1.861,0.038,3.733,0.056,5.613,0.056c1.549,0,3.125-0.018,4.729-0.056c1.604-0.036,3.18-0.055,4.729-0.055l0.166,1.88
	c-1.991,0.148-3.365,0.388-4.12,0.72c-0.756,0.331-1.134,0.829-1.134,1.493c0,0.442,0.128,0.959,0.387,1.549
	c0.258,0.59,0.608,1.309,1.051,2.156l10.066,18.528l9.734-17.588c0.589-1.069,1.042-1.963,1.355-2.683
	c0.313-0.719,0.47-1.336,0.47-1.853c0-0.7-0.415-1.207-1.245-1.521s-2.295-0.544-4.397-0.691l0.111-1.991
	c1.364,0,2.802,0.019,4.314,0.055c1.511,0.038,3.097,0.056,4.756,0.056c1.364,0,2.774-0.018,4.231-0.056
	c1.456-0.036,2.867-0.055,4.231-0.055l0.166,1.88c-1.438,0.111-2.627,0.296-3.567,0.554c-0.94,0.258-1.779,0.7-2.517,1.327
	c-0.738,0.627-1.465,1.476-2.185,2.544c-0.719,1.07-1.595,2.471-2.627,4.203c-1.88,3.135-3.503,5.909-4.867,8.324
	c-1.364,2.415-2.434,4.396-3.208,5.945c-0.774,1.513-1.365,2.729-1.77,3.65c-0.406,0.922-0.701,1.733-0.885,2.434
	c-0.185,0.701-0.286,1.374-0.304,2.019c-0.019,0.646-0.028,1.43-0.028,2.351v10.951c0,0.885,0.074,1.623,0.221,2.212
	c0.147,0.59,0.479,1.078,0.996,1.466c0.516,0.387,1.3,0.673,2.351,0.857s2.479,0.313,4.286,0.387l-0.11,1.991
	c-0.774,0-1.651-0.009-2.627-0.027c-0.978-0.019-1.982-0.028-3.015-0.028c-1.033,0-2.056-0.008-3.069-0.027
	c-1.015-0.019-1.963-0.027-2.848-0.027c-0.738,0-1.54,0.009-2.406,0.027c-0.867,0.02-1.742,0.027-2.627,0.027
	s-1.77,0.01-2.655,0.028c-0.885,0.019-1.678,0.027-2.378,0.027l-0.166-1.881c1.695-0.11,3.06-0.276,4.093-0.497
	c1.032-0.222,1.806-0.59,2.323-1.106c0.516-0.516,0.857-1.207,1.023-2.074c0.166-0.865,0.249-1.999,0.249-3.401V384.438z"/>
<path fill="#5FA3C1" d="M390.757,392.79c0,1.254,0.073,2.286,0.221,3.097c0.147,0.812,0.47,1.447,0.968,1.908
	c0.498,0.462,1.198,0.784,2.102,0.968c0.903,0.185,2.11,0.276,3.623,0.276h4.093c2.138,0,3.88-0.174,5.227-0.525
	c1.346-0.35,2.479-0.94,3.401-1.77c0.921-0.83,1.742-1.927,2.461-3.291c0.719-1.363,1.502-3.042,2.351-5.033l2.157,0.498
	c-0.295,1.07-0.572,2.213-0.83,3.429c-0.258,1.217-0.498,2.416-0.719,3.596c-0.221,1.181-0.406,2.286-0.553,3.318
	c-0.148,1.032-0.24,1.88-0.276,2.544c-7.338,0-13.283-0.019-17.837-0.056c-4.554-0.036-7.956-0.055-10.204-0.055
	c-0.664,0-1.447,0.009-2.351,0.027c-0.904,0.02-1.834,0.027-2.793,0.027c-0.959,0-1.89,0.01-2.793,0.028
	c-0.904,0.019-1.668,0.027-2.295,0.027l-0.166-1.881c1.695-0.11,3.06-0.285,4.092-0.525c1.032-0.239,1.825-0.608,2.378-1.105
	c0.553-0.498,0.921-1.18,1.106-2.047c0.184-0.865,0.277-1.999,0.277-3.401v-37.222c0-0.885-0.083-1.622-0.249-2.212
	s-0.498-1.079-0.996-1.466c-0.498-0.387-1.217-0.672-2.157-0.857c-0.94-0.184-2.204-0.313-3.789-0.387l0.166-1.991
	c0.7,0,1.502,0.01,2.406,0.027c0.903,0.02,1.815,0.027,2.738,0.027c0.958,0,1.889,0.01,2.793,0.028
	c0.903,0.019,1.742,0.027,2.516,0.027c1.438,0,4.461-0.018,9.071-0.056c4.608-0.036,10.471-0.055,17.587-0.055
	c-0.221,1.88-0.387,3.854-0.498,5.918c-0.111,2.065-0.185,4.259-0.221,6.581l-2.212,0.056c-0.332-1.917-0.701-3.503-1.106-4.757
	c-0.406-1.253-0.978-2.258-1.715-3.014c-0.738-0.756-1.696-1.29-2.876-1.604c-1.18-0.313-2.71-0.47-4.59-0.47h-7.909
	c-1.106,0-1.816,0.11-2.129,0.332c-0.314,0.221-0.47,0.793-0.47,1.714v19.137l18.694-0.553l0.387,0.387l-0.111,4.591
	c-3.355-0.295-6.665-0.498-9.928-0.608c-3.263-0.111-6.277-0.202-9.042-0.276V392.79z"/>
<path fill="#5FA3C1" d="M444.903,348.71c0.774,0,1.632,0.01,2.572,0.027c0.94,0.02,1.889,0.027,2.849,0.027
	c0.958,0,1.917,0.01,2.876,0.028c0.958,0.019,1.825,0.027,2.599,0.027c1.438,0,4.268-0.018,8.49-0.056
	c4.222-0.036,10.001-0.055,17.339-0.055c-0.222,1.88-0.388,3.891-0.498,6.028c-0.11,2.139-0.185,4.369-0.221,6.692l-2.213,0.055
	c-0.332-1.953-0.7-3.575-1.106-4.866c-0.405-1.291-0.977-2.323-1.714-3.098c-0.738-0.774-1.696-1.317-2.876-1.632
	c-1.181-0.313-2.71-0.47-4.591-0.47h-7.079c-1.106,0-1.816,0.11-2.129,0.332c-0.314,0.221-0.471,0.793-0.471,1.714v20.298
	l17.864-0.553l0.388,0.387l-0.111,4.646c-3.355-0.295-6.526-0.507-9.513-0.637c-2.986-0.128-5.862-0.229-8.628-0.304v17.477
	c0,0.886,0.083,1.642,0.249,2.268c0.166,0.628,0.553,1.134,1.161,1.521c0.608,0.387,1.502,0.683,2.683,0.885
	c1.18,0.203,2.802,0.323,4.867,0.359l-0.11,1.991c-0.738,0-1.659-0.009-2.766-0.027s-2.268-0.028-3.484-0.028
	s-2.397-0.008-3.54-0.027c-1.143-0.019-2.102-0.027-2.876-0.027c-0.627,0-1.364,0.009-2.212,0.027
	c-0.849,0.02-1.715,0.027-2.6,0.027c-0.885,0-1.752,0.01-2.6,0.028c-0.849,0.019-1.586,0.027-2.212,0.027l-0.166-1.881
	c1.548-0.11,2.793-0.285,3.733-0.525c0.94-0.239,1.668-0.616,2.185-1.134c0.516-0.516,0.866-1.207,1.051-2.073
	c0.184-0.866,0.276-1.982,0.276-3.347v-37.222c0-0.885-0.083-1.622-0.249-2.212s-0.507-1.079-1.022-1.466
	c-0.518-0.387-1.282-0.672-2.296-0.857c-1.015-0.184-2.37-0.313-4.065-0.387L444.903,348.71z"/>
<path fill="#5FA3C1" d="M514.314,347.604c4.019,0,7.715,0.636,11.089,1.908s6.259,3.089,8.655,5.448s4.268,5.208,5.614,8.545
	c1.345,3.337,2.019,7.07,2.019,11.199c0,4.093-0.664,7.863-1.991,11.311c-1.327,3.448-3.189,6.425-5.586,8.932
	c-2.397,2.508-5.273,4.462-8.628,5.863c-3.355,1.4-7.079,2.102-11.172,2.102c-4.02,0-7.707-0.637-11.062-1.908
	c-3.355-1.272-6.241-3.088-8.655-5.448c-2.416-2.359-4.296-5.207-5.642-8.545c-1.347-3.336-2.019-7.069-2.019-11.199
	c0-4.093,0.663-7.862,1.99-11.311c1.328-3.447,3.189-6.424,5.587-8.932c2.396-2.508,5.271-4.461,8.628-5.863
	C506.497,348.305,510.221,347.604,514.314,347.604z M513.982,350.59c-2.544,0-4.987,0.415-7.328,1.245
	c-2.342,0.829-4.406,2.166-6.194,4.01c-1.789,1.844-3.218,4.23-4.286,7.162c-1.07,2.931-1.604,6.498-1.604,10.702
	c0,4.941,0.608,9.089,1.825,12.443c1.217,3.356,2.783,6.057,4.701,8.103c1.917,2.047,4.065,3.504,6.443,4.37
	s4.747,1.299,7.107,1.299c2.544,0,4.985-0.414,7.328-1.244c2.341-0.829,4.405-2.165,6.194-4.01c1.788-1.843,3.216-4.23,4.286-7.162
	c1.068-2.932,1.604-6.499,1.604-10.702c0-4.94-0.608-9.088-1.825-12.444c-1.217-3.354-2.784-6.056-4.701-8.103
	c-1.917-2.046-4.064-3.502-6.443-4.369C518.71,351.024,516.341,350.59,513.982,350.59z"/>
<path fill="#5FA3C1" d="M561.933,394.78c0,0.886,0.056,1.632,0.166,2.24s0.415,1.116,0.912,1.521
	c0.498,0.405,1.226,0.71,2.186,0.912c0.958,0.203,2.304,0.323,4.037,0.359l-0.11,1.991c-1.771,0-3.614-0.019-5.531-0.056
	c-1.917-0.036-3.761-0.055-5.53-0.055c-0.701,0-1.476,0.009-2.323,0.027c-0.849,0.02-1.696,0.027-2.544,0.027
	c-0.812,0-1.586,0.01-2.323,0.028c-0.738,0.019-1.364,0.027-1.88,0.027l-0.111-1.881c1.438-0.11,2.59-0.285,3.457-0.525
	c0.866-0.239,1.539-0.608,2.019-1.105c0.479-0.498,0.802-1.18,0.968-2.047c0.166-0.865,0.249-1.999,0.249-3.401v-37.222
	c0-0.885-0.074-1.622-0.221-2.212c-0.148-0.59-0.452-1.079-0.913-1.466s-1.152-0.672-2.074-0.857
	c-0.922-0.184-2.156-0.313-3.705-0.387l0.11-1.991c0.59,0,1.281,0.01,2.074,0.027c0.792,0.02,1.649,0.027,2.571,0.027
	s1.861,0.01,2.821,0.028c0.958,0.019,1.88,0.027,2.765,0.027c1.475,0,2.959-0.101,4.453-0.304c1.493-0.202,3.014-0.305,4.563-0.305
	c2.212,0,4.425,0.185,6.637,0.553c2.213,0.369,4.212,1.033,6.001,1.991c1.788,0.96,3.235,2.259,4.342,3.899
	c1.106,1.642,1.659,3.733,1.659,6.277c0,1.696-0.268,3.301-0.802,4.812c-0.535,1.513-1.282,2.886-2.24,4.121
	c-0.959,1.235-2.093,2.322-3.401,3.263c-1.31,0.94-2.757,1.706-4.342,2.295c1.18,2.25,2.341,4.407,3.484,6.472
	c1.143,2.065,2.203,3.954,3.181,5.669c0.977,1.714,1.861,3.217,2.654,4.507c0.793,1.291,1.447,2.305,1.964,3.042
	c0.699,0.959,1.308,1.725,1.825,2.296c0.516,0.571,1.078,1.014,1.687,1.327s1.317,0.544,2.129,0.691
	c0.811,0.147,1.862,0.276,3.153,0.387l-0.111,1.991c-1.105,0-2.554-0.019-4.341-0.056c-1.789-0.036-3.513-0.055-5.172-0.055
	c-0.517,0-1.078,0.009-1.687,0.027c-0.608,0.02-1.171,0.047-1.688,0.083c-0.368-0.774-0.939-1.908-1.714-3.401
	s-1.696-3.226-2.766-5.199c-1.069-1.972-2.249-4.12-3.54-6.443c-1.291-2.322-2.637-4.682-4.037-7.079
	c-0.222-0.368-0.434-0.7-0.636-0.995c-0.203-0.295-0.462-0.544-0.774-0.747c-0.313-0.202-0.729-0.359-1.245-0.47
	s-1.198-0.166-2.046-0.166h-1.659c-0.296,0-0.655-0.009-1.078-0.027c-0.425-0.019-0.932-0.046-1.521-0.083V394.78z M561.933,374.538
	c0.295,0.037,0.59,0.065,0.885,0.083c0.295,0.02,0.59,0.027,0.885,0.027h1.771c4.35,0,7.715-0.995,10.094-2.986
	c2.378-1.991,3.567-5.217,3.567-9.679c0-3.761-1.134-6.507-3.401-8.24s-5.282-2.6-9.043-2.6c-1.144,0-2.038,0.102-2.683,0.304
	c-0.646,0.203-1.116,0.508-1.41,0.913c-0.296,0.406-0.479,0.903-0.554,1.493s-0.11,1.254-0.11,1.991V374.538z"/>
<path fill="#5FA3C1" d="M623.435,386.374c0.737,1.918,1.521,3.688,2.351,5.31c0.83,1.623,1.825,3.033,2.987,4.23
	c1.161,1.199,2.516,2.14,4.064,2.821c1.549,0.683,3.41,1.023,5.586,1.023c1.438,0,2.766-0.24,3.982-0.72
	c1.217-0.479,2.286-1.161,3.208-2.046c0.921-0.885,1.64-1.927,2.156-3.125s0.774-2.517,0.774-3.954c0-1.807-0.331-3.355-0.995-4.646
	c-0.664-1.29-1.549-2.405-2.654-3.346c-1.106-0.94-2.36-1.761-3.762-2.461s-2.839-1.383-4.313-2.047
	c-1.659-0.737-3.328-1.549-5.006-2.434s-3.18-1.936-4.507-3.152c-1.328-1.217-2.416-2.617-3.264-4.203
	c-0.849-1.585-1.271-3.466-1.271-5.642c0-2.323,0.47-4.378,1.41-6.167c0.94-1.788,2.212-3.29,3.816-4.507
	c1.604-1.217,3.465-2.139,5.586-2.766c2.119-0.627,4.378-0.94,6.774-0.94c2.323,0,4.471,0.176,6.443,0.525
	c1.973,0.351,4.084,0.821,6.333,1.41c-0.11,1.181-0.203,2.277-0.276,3.291c-0.074,1.015-0.12,2.01-0.139,2.986
	c-0.019,0.978-0.037,1.974-0.055,2.987c-0.02,1.015-0.028,2.11-0.028,3.29l-2.322,0.222c-0.332-3.908-1.521-6.83-3.567-8.767
	c-2.047-1.936-4.804-2.903-8.269-2.903c-1.327,0-2.544,0.203-3.65,0.608c-1.106,0.406-2.065,0.995-2.876,1.77
	c-0.812,0.774-1.447,1.696-1.908,2.766c-0.461,1.07-0.691,2.268-0.691,3.595c0,1.771,0.285,3.255,0.857,4.452
	c0.571,1.199,1.355,2.24,2.351,3.125s2.147,1.65,3.457,2.296c1.308,0.646,2.682,1.281,4.12,1.907
	c1.77,0.774,3.548,1.623,5.337,2.545c1.788,0.922,3.392,2.01,4.812,3.263c1.419,1.254,2.572,2.71,3.457,4.369
	s1.327,3.614,1.327,5.862c0,2.509-0.517,4.729-1.549,6.665s-2.396,3.577-4.092,4.922c-1.697,1.347-3.65,2.37-5.863,3.07
	c-2.212,0.699-4.479,1.051-6.803,1.051c-2.028,0-4.13-0.203-6.305-0.608c-2.176-0.406-4.48-0.959-6.913-1.659
	c-0.259-2.434-0.572-4.72-0.94-6.858c-0.369-2.138-0.867-4.425-1.493-6.858L623.435,386.374z"/>
<path fill="#5FA3C1" d="M674.483,392.79c0,1.254,0.074,2.286,0.222,3.097c0.146,0.812,0.47,1.447,0.968,1.908
	c0.498,0.462,1.197,0.784,2.102,0.968c0.903,0.185,2.11,0.276,3.623,0.276h4.093c2.138,0,3.88-0.174,5.227-0.525
	c1.345-0.35,2.479-0.94,3.401-1.77c0.921-0.83,1.742-1.927,2.461-3.291c0.719-1.363,1.502-3.042,2.351-5.033l2.157,0.498
	c-0.296,1.07-0.572,2.213-0.83,3.429c-0.259,1.217-0.498,2.416-0.719,3.596c-0.222,1.181-0.406,2.286-0.554,3.318
	s-0.24,1.88-0.276,2.544c-7.338,0-13.283-0.019-17.836-0.056c-4.555-0.036-7.956-0.055-10.204-0.055
	c-0.664,0-1.448,0.009-2.351,0.027c-0.904,0.02-1.835,0.027-2.793,0.027c-0.96,0-1.891,0.01-2.793,0.028
	c-0.904,0.019-1.669,0.027-2.296,0.027l-0.166-1.881c1.695-0.11,3.061-0.285,4.093-0.525c1.032-0.239,1.825-0.608,2.379-1.105
	c0.553-0.498,0.921-1.18,1.105-2.047c0.185-0.865,0.276-1.999,0.276-3.401v-37.222c0-0.885-0.083-1.622-0.248-2.212
	c-0.166-0.59-0.498-1.079-0.996-1.466s-1.217-0.672-2.157-0.857c-0.939-0.184-2.203-0.313-3.788-0.387l0.166-1.991
	c0.7,0,1.502,0.01,2.405,0.027c0.903,0.02,1.816,0.027,2.738,0.027c0.958,0,1.889,0.01,2.793,0.028
	c0.903,0.019,1.742,0.027,2.517,0.027c1.438,0,4.461-0.018,9.07-0.056c4.608-0.036,10.471-0.055,17.588-0.055
	c-0.222,1.88-0.388,3.854-0.498,5.918c-0.11,2.065-0.186,4.259-0.222,6.581l-2.212,0.056c-0.332-1.917-0.701-3.503-1.106-4.757
	c-0.406-1.253-0.978-2.258-1.714-3.014c-0.738-0.756-1.696-1.29-2.876-1.604c-1.181-0.313-2.711-0.47-4.591-0.47h-7.909
	c-1.106,0-1.816,0.11-2.129,0.332c-0.313,0.221-0.471,0.793-0.471,1.714v19.137l18.694-0.553l0.387,0.387l-0.11,4.591
	c-3.355-0.295-6.664-0.498-9.928-0.608c-3.263-0.111-6.277-0.202-9.043-0.276V392.79z"/>
<path fill="#5FA3C1" d="M714.47,374.262c0,3.54,0.442,6.867,1.328,9.983c0.885,3.116,2.221,5.826,4.01,8.13
	c1.787,2.305,4.027,4.13,6.72,5.476c2.69,1.346,5.862,2.019,9.513,2.019c1.991,0,3.899-0.276,5.724-0.83
	c1.825-0.553,3.438-1.456,4.84-2.71c1.327-1.18,2.479-2.627,3.457-4.342c0.977-1.714,1.944-3.732,2.903-6.056l2.212,0.553
	c-0.627,2.434-1.125,4.721-1.493,6.858c-0.369,2.139-0.683,4.425-0.94,6.858c-2.913,0.849-5.798,1.512-8.655,1.99
	c-2.857,0.479-5.725,0.72-8.601,0.72c-4.167,0-8.011-0.646-11.531-1.937c-3.521-1.29-6.563-3.115-9.126-5.475s-4.563-5.208-6-8.545
	c-1.438-3.337-2.157-7.052-2.157-11.145c0-4.72,0.866-8.84,2.6-12.361c1.732-3.521,4.083-6.462,7.052-8.821
	c2.967-2.359,6.405-4.121,10.314-5.282c3.908-1.161,8.038-1.742,12.389-1.742c2.249,0,4.654,0.166,7.218,0.498
	c2.563,0.332,4.95,0.793,7.162,1.383c-0.221,2.359-0.359,4.6-0.415,6.72c-0.055,2.12-0.083,4.36-0.083,6.72l-2.322,0.221
	c-0.148-2.175-0.581-4.064-1.3-5.669c-0.719-1.604-1.679-2.931-2.876-3.981c-1.199-1.051-2.591-1.825-4.176-2.323
	c-1.586-0.498-3.318-0.746-5.199-0.746c-3.688,0-6.933,0.58-9.733,1.741c-2.803,1.162-5.153,2.785-7.052,4.867
	c-1.899,2.084-3.338,4.591-4.314,7.522C714.958,367.486,714.47,370.722,714.47,374.262z"/>
<path fill="#5FA3C1" d="M774.755,383.608c0,2.655,0.442,4.932,1.327,6.831c0.886,1.899,2.056,3.447,3.513,4.646
	c1.456,1.198,3.105,2.083,4.95,2.654c1.843,0.572,3.741,0.857,5.696,0.857c1.991,0,3.89-0.304,5.696-0.912s3.41-1.585,4.812-2.932
	c1.401-1.346,2.517-3.078,3.347-5.199c0.829-2.119,1.244-4.673,1.244-7.659v-23.229c0-1.622-0.12-2.932-0.359-3.927
	c-0.24-0.995-0.683-1.77-1.327-2.323c-0.646-0.553-1.54-0.939-2.683-1.161c-1.144-0.222-2.618-0.387-4.425-0.498l0.11-1.991
	c1.291,0,2.849,0.02,4.674,0.056c1.825,0.037,3.733,0.056,5.725,0.056c1.622,0,3.318-0.028,5.088-0.083
	c1.77-0.056,3.244-0.083,4.425-0.083l0.056,1.88c-1.623,0.148-2.941,0.323-3.955,0.525c-1.015,0.203-1.825,0.601-2.434,1.189
	c-0.608,0.59-1.022,1.457-1.244,2.6c-0.222,1.144-0.332,2.71-0.332,4.701V383c0,3.614-0.608,6.674-1.825,9.182
	s-2.812,4.563-4.784,6.166c-1.973,1.604-4.203,2.766-6.691,3.484c-2.489,0.72-5.024,1.079-7.605,1.079
	c-2.544,0-4.978-0.352-7.3-1.051c-2.323-0.7-4.379-1.771-6.167-3.208c-1.789-1.438-3.218-3.244-4.286-5.42
	c-1.07-2.176-1.604-4.737-1.604-7.688v-29.533c0-0.886-0.083-1.641-0.249-2.268s-0.517-1.152-1.051-1.577
	c-0.534-0.423-1.3-0.746-2.295-0.968c-0.995-0.221-2.323-0.368-3.982-0.442l0.111-1.991c0.663,0,1.446,0.01,2.351,0.028
	c0.902,0.019,1.853,0.027,2.848,0.027c1.032,0,2.074,0.01,3.125,0.027c1.051,0.02,2.037,0.028,2.959,0.028
	c0.737,0,1.558-0.009,2.461-0.028c0.903-0.018,1.815-0.027,2.738-0.027c0.921,0,1.797-0.009,2.627-0.027
	c0.829-0.019,1.557-0.028,2.185-0.028l0.166,1.881c-1.586,0.11-2.876,0.296-3.872,0.553c-0.995,0.259-1.77,0.664-2.322,1.217
	c-0.554,0.554-0.932,1.282-1.134,2.185c-0.203,0.904-0.305,2.038-0.305,3.401V383.608z"/>
<path fill="#5FA3C1" d="M833.546,394.78c0,0.886,0.056,1.632,0.166,2.24c0.111,0.608,0.415,1.116,0.913,1.521
	c0.497,0.405,1.226,0.71,2.185,0.912c0.958,0.203,2.304,0.323,4.037,0.359l-0.11,1.991c-1.77,0-3.614-0.019-5.531-0.056
	c-1.917-0.036-3.761-0.055-5.53-0.055c-0.701,0-1.476,0.009-2.323,0.027c-0.849,0.02-1.696,0.027-2.544,0.027
	c-0.812,0-1.586,0.01-2.323,0.028s-1.364,0.027-1.88,0.027l-0.11-1.881c1.438-0.11,2.59-0.285,3.456-0.525
	c0.866-0.239,1.539-0.608,2.019-1.105c0.479-0.498,0.803-1.18,0.969-2.047c0.165-0.865,0.248-1.999,0.248-3.401v-37.222
	c0-0.885-0.074-1.622-0.221-2.212c-0.147-0.59-0.452-1.079-0.913-1.466s-1.152-0.672-2.073-0.857
	c-0.923-0.184-2.157-0.313-3.706-0.387l0.11-1.991c0.59,0,1.281,0.01,2.074,0.027c0.793,0.02,1.649,0.027,2.572,0.027
	c0.921,0,1.861,0.01,2.82,0.028c0.958,0.019,1.881,0.027,2.766,0.027c1.474,0,2.959-0.101,4.452-0.304
	c1.493-0.202,3.014-0.305,4.563-0.305c2.213,0,4.425,0.185,6.637,0.553c2.213,0.369,4.212,1.033,6.001,1.991
	c1.788,0.96,3.235,2.259,4.342,3.899c1.106,1.642,1.659,3.733,1.659,6.277c0,1.696-0.268,3.301-0.802,4.812
	c-0.535,1.513-1.282,2.886-2.24,4.121c-0.959,1.235-2.093,2.322-3.401,3.263c-1.31,0.94-2.757,1.706-4.342,2.295
	c1.18,2.25,2.341,4.407,3.484,6.472c1.143,2.065,2.203,3.954,3.181,5.669c0.977,1.714,1.861,3.217,2.654,4.507
	c0.793,1.291,1.447,2.305,1.964,3.042c0.699,0.959,1.308,1.725,1.825,2.296c0.516,0.571,1.078,1.014,1.687,1.327
	s1.317,0.544,2.129,0.691c0.811,0.147,1.862,0.276,3.153,0.387l-0.111,1.991c-1.105,0-2.554-0.019-4.341-0.056
	c-1.789-0.036-3.513-0.055-5.172-0.055c-0.517,0-1.078,0.009-1.687,0.027c-0.608,0.02-1.171,0.047-1.688,0.083
	c-0.368-0.774-0.939-1.908-1.714-3.401s-1.696-3.226-2.766-5.199c-1.069-1.972-2.249-4.12-3.54-6.443
	c-1.291-2.322-2.636-4.682-4.037-7.079c-0.221-0.368-0.434-0.7-0.636-0.995c-0.203-0.295-0.462-0.544-0.774-0.747
	c-0.313-0.202-0.729-0.359-1.244-0.47c-0.517-0.11-1.199-0.166-2.047-0.166h-1.659c-0.295,0-0.655-0.009-1.078-0.027
	c-0.425-0.019-0.932-0.046-1.521-0.083V394.78z M833.546,374.538c0.295,0.037,0.59,0.065,0.886,0.083
	c0.294,0.02,0.589,0.027,0.885,0.027h1.77c4.351,0,7.715-0.995,10.094-2.986c2.378-1.991,3.567-5.217,3.567-9.679
	c0-3.761-1.134-6.507-3.401-8.24s-5.282-2.6-9.043-2.6c-1.144,0-2.038,0.102-2.683,0.304c-0.646,0.203-1.115,0.508-1.41,0.913
	c-0.296,0.406-0.479,0.903-0.553,1.493c-0.074,0.59-0.111,1.254-0.111,1.991V374.538z"/>
<path fill="#5FA3C1" d="M870.935,399.924c1.438-0.11,2.6-0.285,3.484-0.525c0.885-0.239,1.576-0.608,2.073-1.105
	c0.498-0.498,0.839-1.18,1.023-2.047c0.185-0.865,0.276-1.999,0.276-3.401v-37.222c0-0.885-0.074-1.622-0.221-2.212
	c-0.147-0.59-0.471-1.079-0.968-1.466c-0.498-0.387-1.208-0.672-2.13-0.857c-0.922-0.184-2.139-0.313-3.65-0.387l0.111-1.991
	c0.589,0,1.308,0.01,2.156,0.027c0.849,0.02,1.751,0.027,2.711,0.027c0.995,0,1.999,0.01,3.014,0.028
	c1.014,0.019,1.964,0.027,2.849,0.027c0.7,0,1.483-0.009,2.351-0.027c0.865-0.019,1.723-0.028,2.571-0.028
	c0.848,0,1.65-0.008,2.406-0.027c0.755-0.018,1.392-0.027,1.908-0.027l0.166,1.88c-1.438,0.111-2.6,0.286-3.484,0.525
	c-0.885,0.24-1.586,0.608-2.102,1.106c-0.518,0.498-0.867,1.181-1.051,2.047c-0.186,0.866-0.277,1.982-0.277,3.346v37.277
	c0,0.885,0.074,1.623,0.222,2.212c0.146,0.59,0.47,1.078,0.968,1.466c0.498,0.387,1.207,0.673,2.129,0.857s2.157,0.313,3.706,0.387
	l-0.11,1.991c-0.591,0-1.319-0.009-2.185-0.027c-0.867-0.019-1.798-0.028-2.793-0.028c-0.96,0-1.937-0.008-2.932-0.027
	c-0.995-0.019-1.936-0.027-2.82-0.027c-0.738,0-1.531,0.009-2.379,0.027c-0.849,0.02-1.696,0.027-2.544,0.027
	c-0.849,0-1.65,0.01-2.405,0.028c-0.757,0.019-1.393,0.027-1.908,0.027L870.935,399.924z"/>
<path fill="#5FA3C1" d="M918.554,348.82c1.253,0,2.756-0.009,4.508-0.027c1.751-0.019,3.623-0.028,5.613-0.028
	c2.027,0,4.13-0.008,6.306-0.027c2.175-0.018,4.369-0.027,6.581-0.027c-0.11,1.291-0.212,2.48-0.304,3.567
	c-0.093,1.088-0.166,2.157-0.222,3.208c-0.055,1.051-0.092,2.11-0.11,3.18c-0.02,1.07-0.027,2.231-0.027,3.484l-2.102,0.11
	c-0.332-1.991-0.691-3.668-1.079-5.032c-0.387-1.364-0.949-2.479-1.687-3.347c-0.738-0.866-1.733-1.483-2.986-1.853
	c-1.254-0.368-2.914-0.553-4.979-0.553h-6.305v43.416c0,0.885,0.073,1.623,0.222,2.212c0.146,0.59,0.479,1.078,0.995,1.466
	c0.516,0.387,1.3,0.673,2.351,0.857s2.479,0.313,4.286,0.387l-0.11,1.991c-0.774,0-1.65-0.009-2.627-0.027
	c-0.978-0.019-1.982-0.028-3.015-0.028s-2.056-0.008-3.069-0.027c-1.015-0.019-1.964-0.027-2.849-0.027
	c-0.737,0-1.54,0.009-2.405,0.027c-0.867,0.02-1.742,0.027-2.627,0.027c-0.886,0-1.771,0.01-2.655,0.028s-1.678,0.027-2.378,0.027
	l-0.166-1.881c1.695-0.11,3.06-0.276,4.093-0.497c1.031-0.222,1.806-0.59,2.323-1.106c0.516-0.516,0.856-1.207,1.022-2.074
	c0.166-0.865,0.249-1.999,0.249-3.401v-41.369h-6.139c-2.065,0-3.733,0.185-5.006,0.553c-1.271,0.369-2.295,0.986-3.069,1.853
	c-0.774,0.867-1.364,1.982-1.77,3.347c-0.406,1.364-0.774,3.041-1.106,5.032l-2.102-0.11v-3.484c0-1.659-0.027-3.244-0.083-4.757
	c-0.056-1.511-0.176-3.243-0.359-5.198c2.212,0,4.388,0.01,6.526,0.027c2.138,0.02,4.203,0.027,6.194,0.027s3.844,0.01,5.559,0.028
	C915.761,348.812,917.263,348.82,918.554,348.82z"/>
<path fill="#5FA3C1" d="M963.961,384.438c0-1.069-0.019-1.981-0.056-2.738c-0.037-0.755-0.157-1.511-0.359-2.268
	c-0.203-0.755-0.507-1.576-0.912-2.461c-0.406-0.885-0.978-1.991-1.715-3.318c-0.995-1.77-2.203-3.908-3.622-6.416
	c-1.42-2.507-3.218-5.566-5.393-9.181c-0.849-1.438-1.576-2.608-2.185-3.512s-1.254-1.622-1.936-2.157
	c-0.684-0.534-1.485-0.921-2.406-1.161c-0.922-0.239-2.102-0.415-3.54-0.525l0.111-1.991c1.548,0,3.253,0.019,5.115,0.055
	c1.861,0.038,3.733,0.056,5.614,0.056c1.548,0,3.125-0.018,4.729-0.056c1.604-0.036,3.18-0.055,4.729-0.055l0.166,1.88
	c-1.991,0.148-3.365,0.388-4.12,0.72c-0.756,0.331-1.134,0.829-1.134,1.493c0,0.442,0.129,0.959,0.387,1.549
	s0.608,1.309,1.051,2.156l10.066,18.528l9.733-17.588c0.59-1.069,1.042-1.963,1.355-2.683c0.313-0.719,0.47-1.336,0.47-1.853
	c0-0.7-0.414-1.207-1.244-1.521c-0.829-0.313-2.295-0.544-4.396-0.691l0.11-1.991c1.363,0,2.802,0.019,4.313,0.055
	c1.512,0.038,3.098,0.056,4.757,0.056c1.363,0,2.774-0.018,4.231-0.056c1.456-0.036,2.866-0.055,4.23-0.055l0.166,1.88
	c-1.438,0.111-2.627,0.296-3.567,0.554s-1.779,0.7-2.517,1.327c-0.738,0.627-1.466,1.476-2.185,2.544
	c-0.719,1.07-1.595,2.471-2.627,4.203c-1.881,3.135-3.503,5.909-4.867,8.324s-2.434,4.396-3.208,5.945
	c-0.774,1.513-1.364,2.729-1.77,3.65c-0.406,0.922-0.701,1.733-0.885,2.434c-0.185,0.701-0.286,1.374-0.305,2.019
	c-0.019,0.646-0.027,1.43-0.027,2.351v10.951c0,0.885,0.073,1.623,0.222,2.212c0.146,0.59,0.479,1.078,0.995,1.466
	c0.516,0.387,1.3,0.673,2.351,0.857s2.479,0.313,4.286,0.387l-0.11,1.991c-0.774,0-1.65-0.009-2.627-0.027
	c-0.978-0.019-1.982-0.028-3.015-0.028s-2.056-0.008-3.069-0.027c-1.015-0.019-1.964-0.027-2.849-0.027
	c-0.737,0-1.54,0.009-2.405,0.027c-0.867,0.02-1.742,0.027-2.627,0.027c-0.886,0-1.771,0.01-2.655,0.028s-1.678,0.027-2.378,0.027
	l-0.166-1.881c1.695-0.11,3.06-0.276,4.093-0.497c1.031-0.222,1.806-0.59,2.323-1.106c0.516-0.516,0.856-1.207,1.022-2.074
	c0.166-0.865,0.249-1.999,0.249-3.401V384.438z"/>
<path fill="#232526" d="M483.29,277.329c-14.42,7.21-46.159,16.348-74.042,16.348c-90.343,0-138.904-56.251-138.904-136.519
	c0-88.926,62.027-135.529,131.709-135.529c31.101,0,75.093,10.934,97.345,36.051C490.102,25.066,446.427,0,404.469,0
	c-92.775,0-163.43,63.92-163.43,159.085c0,56.758,20.375,102.631,60.628,129.544C352.869,322.835,451.362,325.796,483.29,277.329"/>
</svg>
